<svg width="36" height="36" viewBox="0 0 36 36" fill="none" xmlns="http://www.w3.org/2000/svg">
<rect y="15" width="36" height="2" rx="1" fill="#7BB985"/>
<rect x="3" width="20" height="2" rx="1" fill="#7BB985"/>
<rect y="34" width="9" height="2" rx="1" fill="#7BB985"/>
<rect x="2" y="27" width="9" height="2" rx="1" fill="#7BB985"/>
<rect x="25" y="24" width="9" height="2" rx="1" fill="#7BB985"/>
<rect x="25" y="31" width="9" height="2" rx="1" fill="#7BB985"/>
<rect x="25" y="7" width="9" height="2" rx="1" fill="#7BB985"/>
<rect x="5.5" y="0.5" width="25" height="35" rx="2.5" fill="#FCFCFC" stroke="black"/>
<rect x="7.5" y="2.5" width="21" height="20" rx="2.5" stroke="black"/>
<rect x="10.5" y="4.5" width="15" height="4" rx="2" fill="#7BB985" stroke="black"/>
<rect x="16.5" y="10.5" width="9" height="4" rx="2" fill="#7BB985" stroke="black"/>
<rect x="10.5" y="16.5" width="8" height="4" rx="2" fill="#7BB985" stroke="black"/>
<rect x="21.5" y="16.5" width="4" height="4" rx="2" fill="#7BB985" stroke="black"/>
<rect x="15.5" y="28.5" width="4" height="4" rx="2" fill="#7BB985" stroke="black"/>
<rect x="10.5" y="10.5" width="4" height="4" rx="2" fill="#7BB985" stroke="black"/>
</svg>
