<svg width="100" height="100" viewBox="0 0 100 100" fill="none" xmlns="http://www.w3.org/2000/svg">
<rect y="41.6667" width="100" height="5.55556" rx="2.77778" fill="#7BB985"/>
<rect x="8.33337" width="55.5556" height="5.55556" rx="2.77778" fill="#7BB985"/>
<rect y="94.4445" width="25" height="5.55556" rx="2.77778" fill="#7BB985"/>
<rect x="5.55554" y="75" width="25" height="5.55556" rx="2.77778" fill="#7BB985"/>
<rect x="69.4445" y="66.6667" width="25" height="5.55556" rx="2.77778" fill="#7BB985"/>
<rect x="69.4445" y="86.1111" width="25" height="5.55556" rx="2.77778" fill="#7BB985"/>
<rect x="69.4445" y="19.4445" width="25" height="5.55556" rx="2.77778" fill="#7BB985"/>
<rect x="15.2778" y="1.38889" width="69.4444" height="97.2222" rx="6.94444" fill="#FCFCFC" stroke="#2B2B2B" stroke-width="2.77778"/>
<rect x="20.8333" y="6.94443" width="58.3333" height="55.5556" rx="6.94444" stroke="#2B2B2B" stroke-width="2.77778"/>
<rect x="29.1666" y="12.5" width="41.6667" height="11.1111" rx="5.55556" fill="#7BB985" stroke="#2B2B2B" stroke-width="2.77778"/>
<rect x="45.8333" y="29.1667" width="25" height="11.1111" rx="5.55556" fill="#7BB985" stroke="#2B2B2B" stroke-width="2.77778"/>
<rect x="29.1666" y="45.8333" width="22.2222" height="11.1111" rx="5.55556" fill="#7BB985" stroke="#2B2B2B" stroke-width="2.77778"/>
<rect x="59.7223" y="45.8333" width="11.1111" height="11.1111" rx="5.55556" fill="#7BB985" stroke="#2B2B2B" stroke-width="2.77778"/>
<rect x="43.0555" y="79.1667" width="11.1111" height="11.1111" rx="5.55556" fill="#7BB985" stroke="#2B2B2B" stroke-width="2.77778"/>
<rect x="29.1666" y="29.1667" width="11.1111" height="11.1111" rx="5.55556" fill="#7BB985" stroke="#2B2B2B" stroke-width="2.77778"/>
</svg>
